<?xml version="1.0" encoding="UTF-8"?>
<!DOCTYPE svg PUBLIC "-//W3C//DTD SVG 1.1//EN" "http://www.w3.org/Graphics/SVG/1.1/DTD/svg11.dtd">
<svg xmlns="http://www.w3.org/2000/svg" version="1.1" width="1000px" height="1000px" style="shape-rendering:geometricPrecision; text-rendering:geometricPrecision; image-rendering:optimizeQuality; fill-rule:evenodd; clip-rule:evenodd" xmlns:xlink="http://www.w3.org/1999/xlink">
<g><path style="opacity:0.031" fill="#363736" d="M 479.5,145.5 C 480.833,146.167 480.833,146.167 479.5,145.5 Z"/></g>
<g><path style="opacity:0.995" fill="#060606" d="M 787.5,402.5 C 787.5,409.167 787.5,415.833 787.5,422.5C 784.509,441.645 775.842,457.812 761.5,471C 748.435,480.193 735.768,489.86 723.5,500C 704.947,523.068 702.447,547.902 716,574.5C 721.291,581.429 725.791,588.762 729.5,596.5C 732.269,601.562 734.436,606.895 736,612.5C 741.264,608.124 746.764,604.124 752.5,600.5C 759.4,594.775 766.733,589.608 774.5,585C 796.474,583.637 804.308,593.47 798,614.5C 796.315,616.017 794.815,617.684 793.5,619.5C 732.973,663.86 672.307,708.027 611.5,752C 591.161,765.502 568.828,773.335 544.5,775.5C 543.833,775.5 543.5,775.833 543.5,776.5C 539.865,775.771 535.865,775.438 531.5,775.5C 496.688,773.908 467.021,760.908 442.5,736.5C 425.114,751.193 405.114,759.859 382.5,762.5C 376.833,762.5 371.167,762.5 365.5,762.5C 312.718,753.718 281.384,723.051 271.5,670.5C 271.5,662.5 271.5,654.5 271.5,646.5C 280.682,597.988 309.348,568.154 357.5,557C 362.684,556.826 367.684,556.326 372.5,555.5C 373.167,555.5 373.833,555.5 374.5,555.5C 380.804,556.26 387.137,556.593 393.5,556.5C 400.845,515.143 418.845,479.143 447.5,448.5C 413.955,442.208 380.288,436.708 346.5,432C 313.269,422.274 293.603,400.441 287.5,366.5C 287.5,363.833 287.5,361.167 287.5,358.5C 291.061,317.617 312.727,292.617 352.5,283.5C 356.711,283.324 360.711,283.324 364.5,283.5C 397.152,288.495 429.818,293.495 462.5,298.5C 463.5,298.167 464.5,297.833 465.5,297.5C 456.807,285.973 448.307,274.307 440,262.5C 422.926,231.166 424.926,201.166 446,172.5C 473.606,144.724 505.106,139.224 540.5,156C 548.489,159.982 555.323,165.482 561,172.5C 585.553,205.386 609.72,238.553 633.5,272C 678.519,279.923 716.352,300.757 747,334.5C 754.667,344.5 762.333,354.5 770,364.5C 778.307,376.109 784.141,388.776 787.5,402.5 Z"/></g>
<g><path style="opacity:0.004" fill="#393a39" d="M 463.5,154.5 C 462.833,153.167 462.833,153.167 463.5,154.5 Z"/></g>
<g><path style="opacity:0.004" fill="#3c3d3c" d="M 433.5,185.5 C 432.833,184.167 432.833,184.167 433.5,185.5 Z"/></g>
<g><path style="opacity:0.075" fill="#393939" d="M 603.5,225.5 C 612.206,238.092 620.872,250.092 629.5,261.5C 631.891,266.694 635.225,269.361 639.5,269.5C 642.183,270.532 644.85,271.532 647.5,272.5C 670.068,278.007 690.402,286.507 708.5,298C 726.32,309.179 741.32,322.846 753.5,339C 761.603,349.887 769.936,360.553 778.5,371C 778.167,371.333 777.833,371.667 777.5,372C 783.734,381.201 787.067,391.368 787.5,402.5C 784.141,388.776 778.307,376.109 770,364.5C 762.333,354.5 754.667,344.5 747,334.5C 716.352,300.757 678.519,279.923 633.5,272C 609.72,238.553 585.553,205.386 561,172.5C 555.323,165.482 548.489,159.982 540.5,156C 505.106,139.224 473.606,144.724 446,172.5C 424.926,201.166 422.926,231.166 440,262.5C 448.307,274.307 456.807,285.973 465.5,297.5C 464.5,297.833 463.5,298.167 462.5,298.5C 429.818,293.495 397.152,288.495 364.5,283.5C 365.868,282.528 367.368,281.528 369,280.5C 371,281.833 373,281.833 375,280.5C 375.442,282.679 376.442,283.345 378,282.5C 383.915,284.202 389.915,285.536 396,286.5C 396.561,285.978 397.228,285.645 398,285.5C 403.205,287.2 408.539,288.533 414,289.5C 415,289.167 416,288.833 417,288.5C 426.567,290.962 436.233,292.962 446,294.5C 447.333,294.5 448.667,294.5 450,294.5C 450.833,293.667 451.667,292.833 452.5,292C 451.903,289.564 451.903,286.897 452.5,284C 444.357,274.124 437.857,264.291 433,254.5C 430.59,247.35 428.424,240.183 426.5,233C 427.753,223.947 427.753,215.281 426.5,207C 429.259,199.73 431.593,192.564 433.5,185.5C 441.449,173.217 451.449,162.884 463.5,154.5C 494.515,139.982 523.515,141.482 550.5,159C 554.633,162.131 558.466,165.631 562,169.5C 576.082,188.068 589.916,206.735 603.5,225.5 Z"/></g>
<g><path style="opacity:1" fill="#eaeaea" d="M 495.5,186.5 C 506.988,184.603 517.321,187.103 526.5,194C 546.465,219.131 565.465,244.964 583.5,271.5C 567.597,273.312 552.264,277.145 537.5,283C 529.203,286.987 520.869,290.654 512.5,294C 501,278.5 489.5,263 478,247.5C 466.936,233.02 465.603,217.687 474,201.5C 477.167,198.333 480.333,195.167 483.5,192C 487.481,189.838 491.481,188.005 495.5,186.5 Z"/></g>
<g><path style="opacity:0.004" fill="#363736" d="M 603.5,224.5 C 604.833,225.167 604.833,225.167 603.5,224.5 Z"/></g>
<g><path style="opacity:0.004" fill="#383938" d="M 629.5,260.5 C 630.833,261.167 630.833,261.167 629.5,260.5 Z"/></g>
<g><path style="opacity:0.004" fill="#393a39" d="M 647.5,271.5 C 648.833,272.167 648.833,272.167 647.5,271.5 Z"/></g>
<g><path style="opacity:0.024" fill="#3a3a3a" d="M 919.5,274.5 C 923.459,276.073 925.125,279.073 924.5,283.5C 922.5,283.5 920.5,283.5 918.5,283.5C 919.159,280.545 919.492,277.545 919.5,274.5 Z"/></g>
<g><path style="opacity:0.008" fill="#383938" d="M 665.5,275.5 C 666.833,276.167 666.833,276.167 665.5,275.5 Z"/></g>
<g><path style="opacity:0.016" fill="#383938" d="M 353.5,280.5 C 354.833,281.167 354.833,281.167 353.5,280.5 Z"/></g>
<g><path style="opacity:0.02" fill="#373837" d="M 425.5,288.5 C 426.833,289.167 426.833,289.167 425.5,288.5 Z"/></g>
<g><path style="opacity:0.004" fill="#393a39" d="M 430.5,289.5 C 431.833,290.167 431.833,290.167 430.5,289.5 Z"/></g>
<g><path style="opacity:0.071" fill="#393939" d="M 352.5,283.5 C 312.727,292.617 291.061,317.617 287.5,358.5C 286.546,355.53 285.879,352.697 285.5,350C 290.138,321.884 304.972,301.051 330,287.5C 330.333,287.833 330.667,288.167 331,288.5C 335.769,286.647 340.435,284.647 345,282.5C 347.466,282.606 349.966,282.939 352.5,283.5 Z"/></g>
<g><path style="opacity:0.004" fill="#363736" d="M 715.5,299.5 C 716.833,300.167 716.833,300.167 715.5,299.5 Z"/></g>
<g><path style="opacity:1" fill="#eaeaea" d="M 607.5,584.5 C 637.208,602.179 667.208,619.512 697.5,636.5C 698.466,634.604 698.799,632.604 698.5,630.5C 699.803,633.355 699.803,636.355 698.5,639.5C 658.973,668.194 619.306,696.694 579.5,725C 542.231,742.497 507.564,738.497 475.5,713C 455.055,691.621 441.222,666.455 434,637.5C 419.15,557.574 444.483,493.907 510,446.5C 516.336,434.342 513.836,424.509 502.5,417C 452.139,408.773 401.805,400.44 351.5,392C 334.065,384.641 326.232,371.474 328,352.5C 334.315,330.588 348.815,321.088 371.5,324C 415.16,331.937 458.993,338.77 503,344.5C 507.505,344.554 511.672,343.387 515.5,341C 561.437,307.382 611.103,301.049 664.5,322C 684.786,330.941 702.286,343.775 717,360.5C 725.719,371.552 734.053,382.886 742,394.5C 750.137,409.507 749.137,423.84 739,437.5C 726.257,447.455 713.423,457.288 700.5,467C 679.173,487.11 668.173,511.943 667.5,541.5C 634.32,532.404 603.654,537.571 575.5,557C 564.65,568.225 564.984,579.225 576.5,590C 582.663,592.979 588.997,593.313 595.5,591C 599.394,588.554 603.394,586.388 607.5,584.5 Z"/></g>
<g><path style="opacity:0.004" fill="#383938" d="M 292.5,319.5 C 293.833,320.167 293.833,320.167 292.5,319.5 Z"/></g>
<g><path style="opacity:0.004" fill="#3b3c3b" d="M 745.5,325.5 C 746.833,326.167 746.833,326.167 745.5,325.5 Z"/></g>
<g><path style="opacity:0.016" fill="#343534" d="M 784.5,379.5 C 785.833,380.167 785.833,380.167 784.5,379.5 Z"/></g>
<g><path style="opacity:1" fill="#0a0a0a" d="M 628.5,381.5 C 643.602,380.03 652.269,386.697 654.5,401.5C 650.916,418.456 640.916,424.289 624.5,419C 612.793,409.642 611.46,398.975 620.5,387C 623.407,385.391 626.073,383.558 628.5,381.5 Z"/></g>
<g><path style="opacity:0.004" fill="#363736" d="M 289.5,383.5 C 288.833,384.167 288.833,384.167 289.5,383.5 Z"/></g>
<g><path style="opacity:0.004" fill="#393a39" d="M 297.5,400.5 C 296.833,401.167 296.833,401.167 297.5,400.5 Z"/></g>
<g><path style="opacity:0.004" fill="#393a39" d="M 419.5,446.5 C 418.833,447.167 418.833,447.167 419.5,446.5 Z"/></g>
<g><path style="opacity:0.004" fill="#393a39" d="M 420.5,446.5 C 420.833,446.5 421.167,446.5 421.5,446.5C 421.315,447.17 420.981,447.17 420.5,446.5 Z"/></g>
<g><path style="opacity:0.004" fill="#393a39" d="M 422.5,446.5 C 422.833,446.5 423.167,446.5 423.5,446.5C 423.315,447.17 422.981,447.17 422.5,446.5 Z"/></g>
<g><path style="opacity:0.061" fill="#393939" d="M 287.5,366.5 C 293.603,400.441 313.269,422.274 346.5,432C 380.288,436.708 413.955,442.208 447.5,448.5C 418.845,479.143 400.845,515.143 393.5,556.5C 387.137,556.593 380.804,556.26 374.5,555.5C 378.312,554.676 382.312,554.176 386.5,554C 388.081,553.293 389.581,552.46 391,551.5C 395.573,532.323 402.407,513.323 411.5,494.5C 413.994,488.554 417.328,483.054 421.5,478C 420.402,477.23 420.402,476.397 421.5,475.5C 427.582,468.231 433.582,460.731 439.5,453C 439.676,451.34 439.009,449.674 437.5,448C 432.668,446.903 428.001,446.403 423.5,446.5C 423.167,445.167 422.833,445.167 422.5,446.5C 422.167,446.5 421.833,446.5 421.5,446.5C 421.167,445.167 420.833,445.167 420.5,446.5C 420.167,446.5 419.833,446.5 419.5,446.5C 419.389,445.883 419.056,445.383 418.5,445C 407.913,443.415 397.413,441.582 387,439.5C 386,439.833 385,440.167 384,440.5C 367.115,437.435 350.282,433.935 333.5,430C 318.458,423.676 306.458,413.843 297.5,400.5C 294.526,394.889 291.859,389.223 289.5,383.5C 288.402,382.603 288.402,381.77 289.5,381C 288.101,379.938 287.101,378.605 286.5,377C 287.109,373.815 287.442,370.315 287.5,366.5 Z"/></g>
<g><path style="opacity:0.004" fill="#363736" d="M 432.5,456.5 C 433.833,457.167 433.833,457.167 432.5,456.5 Z"/></g>
<g><path style="opacity:0.004" fill="#3a3b3a" d="M 421.5,473.5 C 422.833,474.167 422.833,474.167 421.5,473.5 Z"/></g>
<g><path style="opacity:0.004" fill="#3c3d3c" d="M 421.5,474.5 C 421.5,474.833 421.5,475.167 421.5,475.5C 420.83,475.019 420.83,474.685 421.5,474.5 Z"/></g>
<g><path style="opacity:0.012" fill="#383938" d="M 411.5,490.5 C 412.833,491.167 412.833,491.167 411.5,490.5 Z"/></g>
<g><path style="opacity:0.004" fill="#383938" d="M 411.5,494.5 C 410.833,493.167 410.833,493.167 411.5,494.5 Z"/></g>
<g><path style="opacity:0.124" fill="#383838" d="M 787.5,422.5 C 786.75,442.744 779.083,459.244 764.5,472C 751.806,481.016 739.473,490.516 727.5,500.5C 708.682,519.764 704.516,541.764 715,566.5C 720.856,576.222 726.689,585.889 732.5,595.5C 731.209,595.263 730.209,595.596 729.5,596.5C 725.791,588.762 721.291,581.429 716,574.5C 702.447,547.902 704.947,523.068 723.5,500C 735.768,489.86 748.435,480.193 761.5,471C 775.842,457.812 784.509,441.645 787.5,422.5 Z"/></g>
<g><path style="opacity:0.013" fill="#383838" d="M 357.5,553.5 C 358.946,552.387 360.613,552.22 362.5,553C 360.866,553.494 359.199,553.66 357.5,553.5 Z"/></g>
<g><path style="opacity:0.016" fill="#383938" d="M 381.5,552.5 C 382.833,553.167 382.833,553.167 381.5,552.5 Z"/></g>
<g><path style="opacity:0.004" fill="#383938" d="M 349.5,553.5 C 350.833,554.167 350.833,554.167 349.5,553.5 Z"/></g>
<g><path style="opacity:0.004" fill="#3a3b3a" d="M 319.5,568.5 C 318.833,567.167 318.833,567.167 319.5,568.5 Z"/></g>
<g><path style="opacity:0.004" fill="#363736" d="M 316.5,570.5 C 315.833,569.167 315.833,569.167 316.5,570.5 Z"/></g>
<g><path style="opacity:1" fill="#fafafa" d="M 698.5,630.5 C 698.799,632.604 698.466,634.604 697.5,636.5C 667.208,619.512 637.208,602.179 607.5,584.5C 637.448,570.524 663.615,575.857 686,600.5C 689.892,605.85 693.225,611.516 696,617.5C 697.631,621.688 698.464,626.021 698.5,630.5 Z"/></g>
<g><path style="opacity:1" fill="#eaeaea" d="M 390.5,597.5 C 390.918,598.222 391.584,598.722 392.5,599C 391.5,599.333 390.5,599.667 389.5,600C 390.72,636.949 400.387,670.949 418.5,702C 416.273,702.704 415.94,703.871 417.5,705.5C 394.579,724.873 369.579,727.707 342.5,714C 316.278,695.68 306.778,670.847 314,639.5C 328.33,605.25 353.83,591.25 390.5,597.5 Z"/></g>
<g><path style="opacity:1" fill="#e4e4e4" d="M 390.5,597.5 C 394.911,598.693 399.244,600.193 403.5,602C 407.486,602.499 411.486,602.666 415.5,602.5C 422.956,629.691 430.289,656.858 437.5,684C 436.947,687.306 434.947,689.306 431.5,690C 427.167,695.523 422.501,700.69 417.5,705.5C 415.94,703.871 416.273,702.704 418.5,702C 400.387,670.949 390.72,636.949 389.5,600C 390.5,599.667 391.5,599.333 392.5,599C 391.584,598.722 390.918,598.222 390.5,597.5 Z"/></g>
<g><path style="opacity:0.135" fill="#393939" d="M 372.5,555.5 C 367.684,556.326 362.684,556.826 357.5,557C 309.348,568.154 280.682,597.988 271.5,646.5C 274.726,614.028 289.726,588.694 316.5,570.5C 317.71,570.068 318.71,569.401 319.5,568.5C 335.622,559.054 353.288,554.721 372.5,555.5 Z"/></g>
<g><path style="opacity:0.045" fill="#e6e6e6" d="M 732.5,595.5 C 732.989,598.467 734.155,601.133 736,603.5C 737.46,601.578 739.127,600.911 741,601.5C 742.667,600.5 744.333,599.5 746,598.5C 746.333,599.167 746.667,599.833 747,600.5C 747.278,599.584 747.778,598.918 748.5,598.5C 749.995,598.989 751.329,599.655 752.5,600.5C 746.764,604.124 741.264,608.124 736,612.5C 734.436,606.895 732.269,601.562 729.5,596.5C 730.209,595.596 731.209,595.263 732.5,595.5 Z"/></g>
<g><path style="opacity:0.024" fill="#373737" d="M 272.5,623.5 C 273.598,624.601 273.765,625.934 273,627.5C 272.51,626.207 272.343,624.873 272.5,623.5 Z"/></g>
<g><path style="opacity:0.012" fill="#383838" d="M 267.5,648.5 C 268.613,649.946 268.78,651.613 268,653.5C 267.506,651.866 267.34,650.199 267.5,648.5 Z"/></g>
<g><path style="opacity:0.008" fill="#ebebeb" d="M 912.5,798.5 C 912.672,797.508 912.338,796.842 911.5,796.5C 913.174,790.49 914.841,784.49 916.5,778.5C 916.5,778.167 916.5,777.833 916.5,777.5C 917.612,775.401 918.279,773.067 918.5,770.5C 918.5,770.167 918.5,769.833 918.5,769.5C 920.118,766.829 920.785,763.829 920.5,760.5C 920.5,760.167 920.5,759.833 920.5,759.5C 922.118,756.829 922.785,753.829 922.5,750.5C 922.5,749.167 922.5,747.833 922.5,746.5C 923.326,742.018 923.826,737.351 924,732.5C 924.5,710.169 924.667,687.836 924.5,665.5C 925.332,687.33 925.832,709.33 926,731.5C 926.026,704.438 926.693,677.438 928,650.5C 928.667,679.167 928.667,707.833 928,736.5C 926.615,737.551 925.615,738.884 925,740.5C 923.672,758.47 919.839,775.803 913.5,792.5C 916.315,795.217 915.982,797.217 912.5,798.5 Z"/></g>
<g><path style="opacity:0.027" fill="#373837" d="M 267.5,659.5 C 268.833,660.167 268.833,660.167 267.5,659.5 Z"/></g>
<g><path style="opacity:0.017" fill="#393939" d="M 924.5,665.5 C 924.667,687.836 924.5,710.169 924,732.5C 923.826,737.351 923.326,742.018 922.5,746.5C 922.808,744.076 922.474,741.743 921.5,739.5C 920.201,738.91 919.368,737.91 919,736.5C 919.057,721.224 918.89,706.057 918.5,691C 920.035,682.263 922.035,673.763 924.5,665.5 Z"/></g>
<g><path style="opacity:0.004" fill="#383938" d="M 699.5,692.5 C 700.833,693.167 700.833,693.167 699.5,692.5 Z"/></g>
<g><path style="opacity:0.089" fill="#383838" d="M 670.5,712.5 C 665.284,715.934 660.284,719.601 655.5,723.5C 638.472,735.448 620.806,748.115 602.5,761.5C 602.167,760.167 601.833,760.167 601.5,761.5C 599.847,761.66 598.514,762.326 597.5,763.5C 596.833,763.5 596.5,763.833 596.5,764.5C 595.833,764.5 595.5,764.833 595.5,765.5C 595.167,765.5 594.833,765.5 594.5,765.5C 594.167,764.167 593.833,764.167 593.5,765.5C 582.367,769.882 571.033,773.215 559.5,775.5C 557.633,775.903 555.633,775.903 553.5,775.5C 551.927,775.752 550.594,776.418 549.5,777.5C 549.167,776.167 548.833,776.167 548.5,777.5C 548.167,777.5 547.833,777.5 547.5,777.5C 547.167,776.167 546.833,776.167 546.5,777.5C 545.833,777.167 545.167,776.833 544.5,776.5C 544.5,776.167 544.5,775.833 544.5,775.5C 568.828,773.335 591.161,765.502 611.5,752C 672.307,708.027 732.973,663.86 793.5,619.5C 794.815,617.684 796.315,616.017 798,614.5C 804.308,593.47 796.474,583.637 774.5,585C 766.733,589.608 759.4,594.775 752.5,600.5C 751.329,599.655 749.995,598.989 748.5,598.5C 750.105,595.393 752.272,592.726 755,590.5C 757,591.833 759,591.833 761,590.5C 765.503,586.193 771.336,583.693 778.5,583C 781.232,580.12 784.065,580.287 787,583.5C 791.771,583.904 795.771,586.237 799,590.5C 800.577,593.991 802.077,597.491 803.5,601C 802.115,604.679 801.282,608.512 801,612.5C 800.439,614.725 799.439,616.725 798,618.5C 791.464,624.848 784.297,630.348 776.5,635C 741.526,660.731 706.193,686.565 670.5,712.5 Z"/></g>
<g><path style="opacity:0.004" fill="#3b3c3b" d="M 670.5,712.5 C 671.833,713.167 671.833,713.167 670.5,712.5 Z"/></g>
<g><path style="opacity:0.004" fill="#363736" d="M 655.5,723.5 C 656.833,724.167 656.833,724.167 655.5,723.5 Z"/></g>
<g><path style="opacity:0.004" fill="#363736" d="M 300.5,734.5 C 299.833,735.167 299.833,735.167 300.5,734.5 Z"/></g>
<g><path style="opacity:0.092" fill="#393939" d="M 271.5,670.5 C 281.384,723.051 312.718,753.718 365.5,762.5C 340.22,761.304 318.553,751.971 300.5,734.5C 286.411,719.777 276.745,702.944 271.5,684C 271.831,679.984 271.831,675.484 271.5,670.5 Z"/></g>
<g><path style="opacity:0.141" fill="#414141" d="M 922.5,750.5 C 922.785,753.829 922.118,756.829 920.5,759.5C 919.945,755.988 920.612,752.988 922.5,750.5 Z"/></g>
<g><path style="opacity:0.075" fill="#393939" d="M 531.5,775.5 C 499.249,776.052 471.749,766.052 449,745.5C 448.667,745.833 448.333,746.167 448,746.5C 447.363,744.697 446.197,743.364 444.5,742.5C 442.93,742.694 441.43,742.694 440,742.5C 439.005,743.066 438.172,743.733 437.5,744.5C 434.562,745.937 432.062,747.937 430,750.5C 428.442,749.655 427.442,750.321 427,752.5C 426.667,752.167 426.333,751.833 426,751.5C 418.703,755.153 411.369,758.486 404,761.5C 403,761.167 402,760.833 401,760.5C 396.316,761.407 391.65,762.407 387,763.5C 385.366,763.287 383.866,762.954 382.5,762.5C 405.114,759.859 425.114,751.193 442.5,736.5C 467.021,760.908 496.688,773.908 531.5,775.5 Z"/></g>
<g><path style="opacity:0.004" fill="#393a39" d="M 437.5,744.5 C 438.833,745.167 438.833,745.167 437.5,744.5 Z"/></g>
<g><path style="opacity:0.004" fill="#393a39" d="M 601.5,761.5 C 601.833,761.5 602.167,761.5 602.5,761.5C 602.315,762.17 601.981,762.17 601.5,761.5 Z"/></g>
<g><path style="opacity:0.167" fill="#3c3c3c" d="M 920.5,760.5 C 920.785,763.829 920.118,766.829 918.5,769.5C 917.945,765.988 918.612,762.988 920.5,760.5 Z"/></g>
<g><path style="opacity:0.004" fill="#383838" d="M 396.5,764.5 C 397.251,763.427 398.251,763.26 399.5,764C 398.552,764.483 397.552,764.649 396.5,764.5 Z"/></g>
<g><path style="opacity:0.004" fill="#3c3d3c" d="M 597.5,763.5 C 598.833,764.167 598.833,764.167 597.5,763.5 Z"/></g>
<g><path style="opacity:0.039" fill="#363736" d="M 385.5,764.5 C 386.833,765.167 386.833,765.167 385.5,764.5 Z"/></g>
<g><path style="opacity:0.004" fill="#343534" d="M 596.5,764.5 C 596.833,764.5 597.167,764.5 597.5,764.5C 597.315,765.17 596.981,765.17 596.5,764.5 Z"/></g>
<g><path style="opacity:0.004" fill="#373837" d="M 593.5,765.5 C 593.833,765.5 594.167,765.5 594.5,765.5C 594.315,766.17 593.981,766.17 593.5,765.5 Z"/></g>
<g><path style="opacity:0.004" fill="#383938" d="M 595.5,765.5 C 595.833,765.5 596.167,765.5 596.5,765.5C 596.315,766.17 595.981,766.17 595.5,765.5 Z"/></g>
<g><path style="opacity:0.157" fill="#313131" d="M 918.5,770.5 C 918.279,773.067 917.612,775.401 916.5,777.5C 915.99,774.612 916.656,772.279 918.5,770.5 Z"/></g>
<g><path style="opacity:0.004" fill="#373837" d="M 559.5,775.5 C 560.833,776.167 560.833,776.167 559.5,775.5 Z"/></g>
<g><path style="opacity:0.004" fill="#363736" d="M 543.5,776.5 C 543.833,776.5 544.167,776.5 544.5,776.5C 544.315,777.17 543.981,777.17 543.5,776.5 Z"/></g>
<g><path style="opacity:0.004" fill="#373837" d="M 546.5,777.5 C 546.833,777.5 547.167,777.5 547.5,777.5C 547.315,778.17 546.981,778.17 546.5,777.5 Z"/></g>
<g><path style="opacity:0.004" fill="#383938" d="M 548.5,777.5 C 548.833,777.5 549.167,777.5 549.5,777.5C 549.315,778.17 548.981,778.17 548.5,777.5 Z"/></g>
<g><path style="opacity:0.012" fill="#383938" d="M 524.5,779.5 C 525.251,778.427 526.251,778.26 527.5,779C 526.552,779.483 525.552,779.649 524.5,779.5 Z"/></g>
<g><path style="opacity:0.006" fill="#393939" d="M 537.5,779.5 C 538.946,778.387 540.613,778.22 542.5,779C 540.866,779.494 539.199,779.66 537.5,779.5 Z"/></g>
<g><path style="opacity:0.012" fill="#dcdcdc" d="M 911.5,796.5 C 911.328,797.492 911.662,798.158 912.5,798.5C 913.855,801.797 913.355,802.13 911,799.5C 910.8,801.32 909.966,802.653 908.5,803.5C 908.935,800.843 909.935,798.509 911.5,796.5 Z"/></g>
<g><path style="opacity:0.031" fill="#3d3d3d" d="M 916.5,778.5 C 914.841,784.49 913.174,790.49 911.5,796.5C 909.935,798.509 908.935,800.843 908.5,803.5C 907.069,804.78 906.402,806.447 906.5,808.5C 905.662,808.842 905.328,809.508 905.5,810.5C 904.662,810.842 904.328,811.508 904.5,812.5C 903.662,812.842 903.328,813.508 903.5,814.5C 903.167,815.833 902.833,817.167 902.5,818.5C 902.167,818.5 901.833,818.5 901.5,818.5C 898.331,822.833 895.664,827.5 893.5,832.5C 891.5,834.833 889.5,837.167 887.5,839.5C 888.524,832.805 891.524,827.305 896.5,823C 895.342,817.101 896.509,811.601 900,806.5C 901.734,804.549 903.901,803.549 906.5,803.5C 905.717,799.854 905.55,796.188 906,792.5C 907.87,790.781 910.037,789.781 912.5,789.5C 912.892,785.308 914.226,781.641 916.5,778.5 Z"/></g>
<g><path style="opacity:0.036" fill="#3f3f3f" d="M 105.5,832.5 C 103.336,827.5 100.669,822.833 97.5,818.5C 97.1667,818.5 96.8333,818.5 96.5,818.5C 96.1667,817.167 95.8333,815.833 95.5,814.5C 95.6716,813.508 95.3382,812.842 94.5,812.5C 94.3404,810.847 93.6737,809.514 92.5,808.5C 93.5961,804.711 94.2627,804.711 94.5,808.5C 100.2,809.207 103.2,812.54 103.5,818.5C 103.327,820.038 102.994,821.538 102.5,823C 105.851,824.924 108.685,827.424 111,830.5C 111.339,836.401 109.505,837.068 105.5,832.5 Z"/></g>
<g><path style="opacity:0.006" fill="#e8e8e8" d="M 92.5,808.5 C 93.6737,809.514 94.3404,810.847 94.5,812.5C 95.3382,812.842 95.6716,813.508 95.5,814.5C 94.1472,816.128 94.4805,817.462 96.5,818.5C 96.8333,819.833 97.1667,819.833 97.5,818.5C 100.669,822.833 103.336,827.5 105.5,832.5C 104.85,832.804 104.183,833.137 103.5,833.5C 102.824,832.398 102.158,831.398 101.5,830.5C 101.657,829.127 101.49,827.793 101,826.5C 96.8079,823.307 93.3079,819.474 90.5,815C 90.5978,812.911 91.2645,810.745 92.5,808.5 Z"/></g>
<g><path style="opacity:0.007" fill="#e7e7e7" d="M 908.5,803.5 C 908.756,805.937 909.423,808.271 910.5,810.5C 908.035,817.136 903.868,822.469 898,826.5C 897.51,827.793 897.343,829.127 897.5,830.5C 896.167,831.5 896.167,832.5 897.5,833.5C 897.586,834.496 897.252,835.329 896.5,836C 895,836.5 893.5,837 892,837.5C 890.271,839.401 888.438,841.068 886.5,842.5C 886.263,841.209 886.596,840.209 887.5,839.5C 889.5,837.167 891.5,834.833 893.5,832.5C 895.664,827.5 898.331,822.833 901.5,818.5C 901.833,819.833 902.167,819.833 902.5,818.5C 904.519,817.462 904.853,816.128 903.5,814.5C 903.328,813.508 903.662,812.842 904.5,812.5C 904.328,811.508 904.662,810.842 905.5,810.5C 905.328,809.508 905.662,808.842 906.5,808.5C 906.402,806.447 907.069,804.78 908.5,803.5 Z"/></g>
<g><path style="opacity:0.006" fill="#e9e9e9" d="M 101.5,830.5 C 101.631,831.239 101.464,831.906 101,832.5C 100.308,831.563 100.475,830.897 101.5,830.5 Z"/></g>
<g><path style="opacity:0.004" fill="#eaeaea" d="M 897.5,830.5 C 898.833,831.5 898.833,832.5 897.5,833.5C 897.5,832.5 897.5,831.5 897.5,830.5 Z"/></g>
<g><path style="opacity:0.004" fill="#eaeaea" d="M 886.5,842.5 C 886.631,843.239 886.464,843.906 886,844.5C 885.308,843.563 885.475,842.897 886.5,842.5 Z"/></g>
<g><path style="opacity:0.012" fill="#434343" d="M 180.5,900.5 C 185.086,901.46 189.086,903.46 192.5,906.5C 191.833,906.5 191.167,906.5 190.5,906.5C 190.158,905.662 189.492,905.328 188.5,905.5C 188.167,905.5 187.833,905.5 187.5,905.5C 187.5,904.833 187.167,904.5 186.5,904.5C 186.167,904.5 185.833,904.5 185.5,904.5C 185.5,903.833 185.167,903.5 184.5,903.5C 184.158,902.662 183.492,902.328 182.5,902.5C 181.833,901.833 181.167,901.167 180.5,900.5 Z"/></g>
<g><path style="opacity:0.007" fill="#dbdbdb" d="M 180.5,900.5 C 181.167,901.167 181.833,901.833 182.5,902.5C 183.492,902.328 184.158,902.662 184.5,903.5C 185.167,903.5 185.5,903.833 185.5,904.5C 185.833,905.833 186.167,905.833 186.5,904.5C 187.167,904.5 187.5,904.833 187.5,905.5C 187.833,906.833 188.167,906.833 188.5,905.5C 189.492,905.328 190.158,905.662 190.5,906.5C 191.167,906.5 191.833,906.5 192.5,906.5C 197.249,908.752 201.249,911.919 204.5,916C 201.839,916.062 199.505,915.062 197.5,913C 198.833,912.333 198.833,911.667 197.5,911C 195.919,910.293 194.419,909.46 193,908.5C 191.333,909.167 189.667,909.833 188,910.5C 184.788,909.145 181.622,907.645 178.5,906C 177.96,903.893 176.96,901.726 175.5,899.5C 177.415,899.216 179.081,899.549 180.5,900.5 Z"/></g>
<g><path style="opacity:0.01" fill="#dddddd" d="M 313.5,926.5 C 320.78,925.939 328.114,926.772 335.5,929C 329.167,929.667 322.833,929.667 316.5,929C 315.627,927.955 314.627,927.122 313.5,926.5 Z"/></g>
</svg>
