<?xml version="1.0" encoding="UTF-8"?>
<!DOCTYPE svg PUBLIC "-//W3C//DTD SVG 1.1//EN" "http://www.w3.org/Graphics/SVG/1.1/DTD/svg11.dtd">
<svg xmlns="http://www.w3.org/2000/svg" version="1.1" width="1000px" height="1000px" style="shape-rendering:geometricPrecision; text-rendering:geometricPrecision; image-rendering:optimizeQuality; fill-rule:evenodd; clip-rule:evenodd" xmlns:xlink="http://www.w3.org/1999/xlink">
<g><path style="opacity:0.171" fill="#eeeeee" d="M 256.5,74.5 C 256.5,74.8333 256.5,75.1667 256.5,75.5C 251.848,75.9981 247.181,76.3314 242.5,76.5C 246.715,74.5636 251.381,73.8969 256.5,74.5 Z"/></g>
<g><path style="opacity:0.633" fill="#7a7a7a" d="M 739.5,74.5 C 739.5,74.8333 739.5,75.1667 739.5,75.5C 578.5,75.5 417.5,75.5 256.5,75.5C 256.5,75.1667 256.5,74.8333 256.5,74.5C 417.665,73.2641 578.665,73.2641 739.5,74.5 Z"/></g>
<g><path style="opacity:0.153" fill="#f6f6f6" d="M 241.5,76.5 C 238.689,77.475 235.689,78.1417 232.5,78.5C 234.988,76.6122 237.988,75.9455 241.5,76.5 Z"/></g>
<g><path style="opacity:1" fill="#3a3a3a" d="M 256.5,75.5 C 417.5,75.5 578.5,75.5 739.5,75.5C 752.355,76.4091 765.022,78.4091 777.5,81.5C 786.092,84.4761 794.759,87.4761 803.5,90.5C 809.643,93.7365 815.976,96.7365 822.5,99.5C 823.659,101.25 825.326,102.25 827.5,102.5C 827.973,103.906 828.973,104.573 830.5,104.5C 830.973,105.906 831.973,106.573 833.5,106.5C 834.492,106.328 835.158,106.662 835.5,107.5C 838.597,110.888 842.264,113.555 846.5,115.5C 847.167,115.5 847.5,115.833 847.5,116.5C 847.973,117.906 848.973,118.573 850.5,118.5C 851.5,118.833 852.167,119.5 852.5,120.5C 853.262,122.262 854.596,123.262 856.5,123.5C 861.5,127.833 866.167,132.5 870.5,137.5C 872.094,140.764 874.427,143.431 877.5,145.5C 878.5,145.833 879.167,146.5 879.5,147.5C 880.026,149.23 881.026,150.564 882.5,151.5C 883.167,151.5 883.5,151.833 883.5,152.5C 884.124,154.754 885.457,156.421 887.5,157.5C 888.338,157.842 888.672,158.508 888.5,159.5C 889.786,162.117 891.453,164.45 893.5,166.5C 894.383,169.704 896.05,172.371 898.5,174.5C 901.325,181.484 904.659,188.151 908.5,194.5C 908.5,194.833 908.5,195.167 908.5,195.5C 908.66,197.153 909.326,198.486 910.5,199.5C 912.936,208.006 915.602,216.339 918.5,224.5C 921.378,235.949 923.211,247.616 924,259.5C 924.667,417.167 924.667,574.833 924,732.5C 922.865,757.065 917.698,780.732 908.5,803.5C 873.82,876.302 816.153,916.469 735.5,924C 575.5,924.667 415.5,924.667 255.5,924C 238.065,921.89 221.065,918.057 204.5,912.5C 138.292,884.766 96.292,836.099 78.5,766.5C 78.8412,762.84 78.1745,759.507 76.5,756.5C 76.298,748.314 75.6313,740.314 74.5,732.5C 74.5,574.833 74.5,417.167 74.5,259.5C 75.7373,254.04 76.404,248.373 76.5,242.5C 76.5,242.167 76.5,241.833 76.5,241.5C 77.475,238.689 78.1417,235.689 78.5,232.5C 97.7386,157.926 143.739,107.926 216.5,82.5C 221.994,81.4599 227.327,80.1265 232.5,78.5C 235.689,78.1417 238.689,77.475 241.5,76.5C 241.833,76.5 242.167,76.5 242.5,76.5C 247.181,76.3314 251.848,75.9981 256.5,75.5 Z"/></g>
<g><path style="opacity:0.022" fill="#dadada" d="M 739.5,75.5 C 739.5,75.1667 739.5,74.8333 739.5,74.5C 752.761,74.2873 765.427,76.6206 777.5,81.5C 765.022,78.4091 752.355,76.4091 739.5,75.5 Z"/></g>
<g><path style="opacity:0.153" fill="#ebebeb" d="M 232.5,78.5 C 227.327,80.1265 221.994,81.4599 216.5,82.5C 218.025,80.9642 220.025,79.9642 222.5,79.5C 225.768,78.513 229.102,78.1796 232.5,78.5 Z"/></g>
<g><path style="opacity:0.014" fill="#e1e1e1" d="M 777.5,81.5 C 783.707,82.0991 789.707,83.5991 795.5,86C 798.633,86.8596 801.3,88.3596 803.5,90.5C 794.759,87.4761 786.092,84.4761 777.5,81.5 Z"/></g>
<g><path style="opacity:0.043" fill="#e6e6e6" d="M 803.5,90.5 C 810.529,92.1824 816.862,95.1824 822.5,99.5C 815.976,96.7365 809.643,93.7365 803.5,90.5 Z"/></g>
<g><path style="opacity:0.114" fill="#e0e0e0" d="M 822.5,99.5 C 824.674,99.7497 826.341,100.75 827.5,102.5C 825.326,102.25 823.659,101.25 822.5,99.5 Z"/></g>
<g><path style="opacity:0.055" fill="#dedede" d="M 827.5,102.5 C 829.027,102.427 830.027,103.094 830.5,104.5C 828.973,104.573 827.973,103.906 827.5,102.5 Z"/></g>
<g><path style="opacity:0.129" fill="#d1d1d1" d="M 830.5,104.5 C 832.027,104.427 833.027,105.094 833.5,106.5C 831.973,106.573 830.973,105.906 830.5,104.5 Z"/></g>
<g><path style="opacity:0.047" fill="#ececec" d="M 835.5,107.5 C 840.169,108.981 843.835,111.648 846.5,115.5C 842.264,113.555 838.597,110.888 835.5,107.5 Z"/></g>
<g><path style="opacity:0.004" fill="#dfdfdf" d="M 847.5,116.5 C 849.027,116.427 850.027,117.094 850.5,118.5C 848.973,118.573 847.973,117.906 847.5,116.5 Z"/></g>
<g><path style="opacity:0.191" fill="#f1f1f1" d="M 216.5,82.5 C 143.739,107.926 97.7386,157.926 78.5,232.5C 79.9165,218.579 83.5831,205.246 89.5,192.5C 112.254,141.079 149.921,105.413 202.5,85.5C 206.98,83.5461 211.647,82.5461 216.5,82.5 Z"/></g>
<g><path style="opacity:0.004" fill="#dcdcdc" d="M 852.5,120.5 C 854.404,120.738 855.738,121.738 856.5,123.5C 854.596,123.262 853.262,122.262 852.5,120.5 Z"/></g>
<g><path style="opacity:0.576" fill="#a7a7a7" d="M 870.5,137.5 C 873.573,139.569 875.906,142.236 877.5,145.5C 874.427,143.431 872.094,140.764 870.5,137.5 Z"/></g>
<g><path style="opacity:1" fill="#060606" d="M 730.5,597.5 C 732.482,602.419 734.316,607.419 736,612.5C 741.264,608.124 746.764,604.124 752.5,600.5C 759.4,594.775 766.733,589.608 774.5,585C 796.474,583.637 804.308,593.47 798,614.5C 796.315,616.017 794.815,617.684 793.5,619.5C 733.693,662.807 674.027,706.307 614.5,750C 563.526,783.251 512.193,783.917 460.5,752C 454.647,746.646 448.647,741.48 442.5,736.5C 410.065,763.517 374.065,769.35 334.5,754C 291.281,732.736 270.447,697.903 272,649.5C 276.29,613.251 294.123,586.084 325.5,568C 346.9,556.891 369.567,553.058 393.5,556.5C 400.866,515.101 418.866,479.101 447.5,448.5C 412.916,442.25 378.249,436.416 343.5,431C 309.389,419.377 290.722,395.543 287.5,359.5C 289.774,319.738 310.107,294.905 348.5,285C 355.777,283.533 363.111,283.199 370.5,284C 401.144,288.942 431.811,293.775 462.5,298.5C 463.5,298.167 464.5,297.833 465.5,297.5C 456.807,285.973 448.307,274.307 440,262.5C 422.926,231.166 424.926,201.166 446,172.5C 471.472,146.555 501.305,140.055 535.5,153C 545.138,157.967 553.638,164.467 561,172.5C 585.553,205.386 609.72,238.553 633.5,272C 683.722,281.021 724.555,305.521 756,345.5C 761.613,354.112 767.613,362.446 774,370.5C 795.376,407.199 791.209,440.699 761.5,471C 748.178,480.239 735.344,490.072 723,500.5C 704.977,523.556 702.644,548.223 716,574.5C 721.371,581.927 726.204,589.593 730.5,597.5 Z"/></g>
<g><path style="opacity:0.049" fill="#e4e4e4" d="M 879.5,147.5 C 881.446,148.035 882.446,149.368 882.5,151.5C 881.026,150.564 880.026,149.23 879.5,147.5 Z"/></g>
<g><path style="opacity:0.071" fill="#f1f1f1" d="M 883.5,152.5 C 885.997,153.129 887.33,154.796 887.5,157.5C 885.457,156.421 884.124,154.754 883.5,152.5 Z"/></g>
<g><path style="opacity:0.045" fill="#dfdfdf" d="M 888.5,159.5 C 891.323,160.992 892.99,163.326 893.5,166.5C 891.453,164.45 889.786,162.117 888.5,159.5 Z"/></g>
<g><path style="opacity:0.09" fill="#e7e7e7" d="M 893.5,166.5 C 896.164,168.484 897.831,171.151 898.5,174.5C 896.05,172.371 894.383,169.704 893.5,166.5 Z"/></g>
<g><path style="opacity:1" fill="#eaeaea" d="M 495.5,186.5 C 506.988,184.603 517.321,187.103 526.5,194C 546.465,219.131 565.465,244.964 583.5,271.5C 567.597,273.312 552.264,277.145 537.5,283C 529.203,286.987 520.869,290.654 512.5,294C 501,278.5 489.5,263 478,247.5C 466.936,233.02 465.603,217.687 474,201.5C 477.167,198.333 480.333,195.167 483.5,192C 487.481,189.838 491.481,188.005 495.5,186.5 Z"/></g>
<g><path style="opacity:0.086" fill="#ebebeb" d="M 898.5,174.5 C 902.874,180.581 906.207,187.248 908.5,194.5C 904.659,188.151 901.325,181.484 898.5,174.5 Z"/></g>
<g><path style="opacity:0.055" fill="#e0e0e0" d="M 908.5,195.5 C 910.104,196.287 910.771,197.62 910.5,199.5C 909.326,198.486 908.66,197.153 908.5,195.5 Z"/></g>
<g><path style="opacity:0.016" fill="#e0e0e0" d="M 910.5,199.5 C 914.548,207.293 917.214,215.627 918.5,224.5C 915.602,216.339 912.936,208.006 910.5,199.5 Z"/></g>
<g><path style="opacity:0.153" fill="#f5f5f5" d="M 78.5,232.5 C 78.1417,235.689 77.475,238.689 76.5,241.5C 75.9455,237.988 76.6122,234.988 78.5,232.5 Z"/></g>
<g><path style="opacity:0.185" fill="#e6e6e6" d="M 76.5,242.5 C 76.404,248.373 75.7373,254.04 74.5,259.5C 73.8833,253.402 74.55,247.735 76.5,242.5 Z"/></g>
<g><path style="opacity:1" fill="#eaeaea" d="M 607.5,584.5 C 637.208,602.179 667.208,619.512 697.5,636.5C 698.466,634.604 698.799,632.604 698.5,630.5C 699.803,633.355 699.803,636.355 698.5,639.5C 658.973,668.194 619.306,696.694 579.5,725C 542.231,742.497 507.564,738.497 475.5,713C 455.055,691.621 441.222,666.455 434,637.5C 419.15,557.574 444.483,493.907 510,446.5C 516.336,434.342 513.836,424.509 502.5,417C 452.139,408.773 401.805,400.44 351.5,392C 334.065,384.641 326.232,371.474 328,352.5C 334.315,330.588 348.815,321.088 371.5,324C 415.16,331.937 458.993,338.77 503,344.5C 507.505,344.554 511.672,343.387 515.5,341C 561.437,307.382 611.103,301.049 664.5,322C 684.786,330.941 702.286,343.775 717,360.5C 725.719,371.552 734.053,382.886 742,394.5C 750.137,409.507 749.137,423.84 739,437.5C 726.257,447.455 713.423,457.288 700.5,467C 679.173,487.11 668.173,511.943 667.5,541.5C 634.32,532.404 603.654,537.571 575.5,557C 564.65,568.225 564.984,579.225 576.5,590C 582.663,592.979 588.997,593.313 595.5,591C 599.394,588.554 603.394,586.388 607.5,584.5 Z"/></g>
<g><path style="opacity:0.063" fill="#e4e4e4" d="M 918.5,224.5 C 922.439,235.36 924.606,246.693 925,258.5C 925.667,419.167 925.667,579.833 925,740.5C 923.351,759.42 919.351,777.754 913,795.5C 911.763,798.448 910.263,801.115 908.5,803.5C 917.698,780.732 922.865,757.065 924,732.5C 924.667,574.833 924.667,417.167 924,259.5C 923.211,247.616 921.378,235.949 918.5,224.5 Z"/></g>
<g><path style="opacity:1" fill="#0a0a0a" d="M 628.5,381.5 C 643.602,380.03 652.269,386.697 654.5,401.5C 650.916,418.456 640.916,424.289 624.5,419C 612.793,409.642 611.46,398.975 620.5,387C 623.407,385.391 626.073,383.558 628.5,381.5 Z"/></g>
<g><path style="opacity:1" fill="#fafafa" d="M 698.5,630.5 C 698.799,632.604 698.466,634.604 697.5,636.5C 667.208,619.512 637.208,602.179 607.5,584.5C 637.448,570.524 663.615,575.857 686,600.5C 689.892,605.85 693.225,611.516 696,617.5C 697.631,621.688 698.464,626.021 698.5,630.5 Z"/></g>
<g><path style="opacity:1" fill="#eaeaea" d="M 390.5,597.5 C 390.918,598.222 391.584,598.722 392.5,599C 391.5,599.333 390.5,599.667 389.5,600C 390.72,636.949 400.387,670.949 418.5,702C 416.273,702.704 415.94,703.871 417.5,705.5C 394.579,724.873 369.579,727.707 342.5,714C 316.278,695.68 306.778,670.847 314,639.5C 328.33,605.25 353.83,591.25 390.5,597.5 Z"/></g>
<g><path style="opacity:1" fill="#e4e4e4" d="M 390.5,597.5 C 394.911,598.693 399.244,600.193 403.5,602C 407.486,602.499 411.486,602.666 415.5,602.5C 422.956,629.691 430.289,656.858 437.5,684C 436.947,687.306 434.947,689.306 431.5,690C 427.167,695.523 422.501,700.69 417.5,705.5C 415.94,703.871 416.273,702.704 418.5,702C 400.387,670.949 390.72,636.949 389.5,600C 390.5,599.667 391.5,599.333 392.5,599C 391.584,598.722 390.918,598.222 390.5,597.5 Z"/></g>
<g><path style="opacity:1" fill="#e8e8e8" d="M 752.5,600.5 C 746.764,604.124 741.264,608.124 736,612.5C 734.316,607.419 732.482,602.419 730.5,597.5C 731.449,596.848 732.615,596.514 734,596.5C 740.489,596.965 746.655,598.298 752.5,600.5 Z"/></g>
<g><path style="opacity:0.188" fill="#d3d3d3" d="M 74.5,732.5 C 75.6313,740.314 76.298,748.314 76.5,756.5C 74.5332,748.903 73.8665,740.903 74.5,732.5 Z"/></g>
<g><path style="opacity:0.11" fill="#dfdfdf" d="M 76.5,756.5 C 78.1745,759.507 78.8412,762.84 78.5,766.5C 76.5977,763.663 75.931,760.329 76.5,756.5 Z"/></g>
<g><path style="opacity:0.11" fill="#e1e1e1" d="M 78.5,766.5 C 96.292,836.099 138.292,884.766 204.5,912.5C 202.801,912.66 201.134,912.494 199.5,912C 184.779,905.604 170.779,897.938 157.5,889C 135.564,872.565 116.897,853.065 101.5,830.5C 93.1827,815.867 86.516,800.534 81.5,784.5C 79.5935,778.636 78.5935,772.636 78.5,766.5 Z"/></g>
<g><path style="opacity:0.004" fill="#dadada" d="M 908.5,803.5 C 906.918,809.34 904.752,815.007 902,820.5C 865.288,883.208 810.788,918.375 738.5,926C 579.167,926.667 419.833,926.667 260.5,926C 244.416,924.821 228.749,921.821 213.5,917C 210.177,915.96 207.177,914.46 204.5,912.5C 221.065,918.057 238.065,921.89 255.5,924C 415.5,924.667 575.5,924.667 735.5,924C 816.153,916.469 873.82,876.302 908.5,803.5 Z"/></g>
</svg>
